<svg xmlns="http://www.w3.org/2000/svg" xmlns:xlink="http://www.w3.org/1999/xlink" width="500" zoomAndPan="magnify" viewBox="0 0 375 374.999991" height="500" preserveAspectRatio="xMidYMid meet" version="1.0"><defs><clipPath id="c8dd822c0d"><path d="M 144 108.003906 L 209 108.003906 L 209 265 L 144 265 Z M 144 108.003906 " clip-rule="nonzero"/></clipPath><clipPath id="4887de7de8"><path d="M 316 108.003906 L 371.703125 108.003906 L 371.703125 265 L 316 265 Z M 316 108.003906 " clip-rule="nonzero"/></clipPath><clipPath id="ac4d71e2d5"><path d="M 3.453125 136 L 99 136 L 99 250 L 3.453125 250 Z M 3.453125 136 " clip-rule="nonzero"/></clipPath><clipPath id="e8ffcbdb60"><path d="M 119 108.003906 L 195 108.003906 L 195 250 L 119 250 Z M 119 108.003906 " clip-rule="nonzero"/></clipPath><clipPath id="e399b85cdf"><path d="M 316 108.003906 L 357 108.003906 L 357 250 L 316 250 Z M 316 108.003906 " clip-rule="nonzero"/></clipPath><clipPath id="4b8502af34"><path d="M 352 245 L 371.703125 245 L 371.703125 265 L 352 265 Z M 352 245 " clip-rule="nonzero"/></clipPath></defs><path fill="#231f20" d="M 97.4375 214.839844 L 97.4375 248.308594 L 29.125 248.308594 L 30.503906 249.6875 L 43.835938 263.011719 L 112.152344 263.011719 L 112.152344 229.542969 L 97.445312 214.847656 Z M 97.4375 137.546875 L 97.4375 171.015625 L 42.234375 171.015625 L 42.234375 214.832031 L 56.9375 214.832031 L 56.9375 185.710938 L 112.144531 185.710938 L 112.144531 152.242188 Z M 97.4375 137.546875 " fill-opacity="1" fill-rule="nonzero"/><path fill="#231f20" d="M 113.113281 228.574219 L 98.566406 214.066406 C 98.507812 213.988281 98.457031 213.929688 98.398438 213.875 L 98.398438 213.84375 C 98.398438 213.84375 98.339844 213.785156 98.320312 213.785156 C 98.210938 213.679688 98.09375 213.621094 97.957031 213.570312 C 97.792969 213.492188 97.597656 213.460938 97.4375 213.460938 C 97.242188 213.460938 97.078125 213.492188 96.890625 213.570312 C 96.390625 213.765625 96.066406 214.285156 96.066406 214.832031 L 96.066406 246.929688 L 29.125 246.929688 C 28.761719 246.929688 28.410156 247.066406 28.164062 247.339844 C 28.027344 247.449219 27.917969 247.617188 27.859375 247.78125 C 27.644531 248.28125 27.75 248.886719 28.164062 249.269531 L 42.871094 263.964844 C 43.113281 264.238281 43.476562 264.375 43.828125 264.375 L 112.144531 264.375 C 112.886719 264.375 113.523438 263.742188 113.523438 262.996094 L 113.523438 229.527344 C 113.523438 229.167969 113.355469 228.8125 113.113281 228.570312 Z M 110.773438 261.632812 L 44.414062 261.632812 L 32.460938 249.6875 L 97.4375 249.6875 C 98.183594 249.6875 98.816406 249.050781 98.816406 248.308594 L 98.816406 218.167969 L 110.773438 230.113281 Z M 113.113281 151.253906 L 98.40625 136.578125 L 98.40625 136.550781 C 98.40625 136.550781 98.347656 136.492188 98.328125 136.492188 C 98.21875 136.382812 98.101562 136.328125 97.964844 136.269531 C 97.800781 136.191406 97.605469 136.160156 97.445312 136.160156 C 97.25 136.160156 97.085938 136.191406 96.894531 136.269531 C 96.398438 136.464844 96.074219 136.953125 96.074219 137.53125 L 96.074219 169.628906 L 42.234375 169.628906 C 41.460938 169.628906 40.855469 170.234375 40.855469 171.007812 L 40.855469 214.824219 C 40.855469 215.570312 41.460938 216.203125 42.234375 216.203125 L 56.9375 216.203125 C 57.683594 216.203125 58.320312 215.570312 58.320312 214.824219 L 58.320312 188.429688 C 58.320312 187.6875 58.925781 187.082031 59.667969 187.082031 L 112.144531 187.082031 C 112.917969 187.082031 113.523438 186.445312 113.523438 185.703125 L 113.523438 152.234375 C 113.523438 151.851562 113.355469 151.519531 113.113281 151.246094 Z M 110.773438 184.339844 L 56.945312 184.339844 C 56.171875 184.339844 55.566406 184.945312 55.566406 185.71875 L 55.566406 213.460938 L 43.613281 213.460938 L 43.613281 172.394531 L 97.4375 172.394531 C 98.183594 172.394531 98.816406 171.757812 98.816406 171.015625 L 98.816406 140.84375 L 110.773438 152.789062 Z M 110.773438 184.339844 " fill-opacity="1" fill-rule="nonzero"/><path fill="#231f20" d="M 159.222656 111.015625 L 157.84375 109.636719 L 157.84375 141.566406 L 172.550781 141.566406 L 172.550781 124.339844 L 159.214844 111.015625 Z M 192.5 141.566406 L 192.5 171.816406 L 157.84375 171.816406 L 157.84375 218.03125 L 172.550781 218.03125 L 172.550781 186.511719 L 207.203125 186.511719 L 207.203125 156.261719 Z M 193.878906 219.410156 L 192.5 218.03125 L 192.5 248.308594 L 146.359375 248.308594 L 147.738281 249.6875 L 161.042969 263.011719 L 207.210938 263.011719 L 207.210938 232.734375 Z M 193.878906 219.410156 " fill-opacity="1" fill-rule="nonzero"/><g clip-path="url(#c8dd822c0d)"><path fill="#231f20" d="M 173.515625 123.371094 L 158.890625 108.785156 L 158.8125 108.675781 C 158.8125 108.675781 158.753906 108.617188 158.730469 108.617188 C 158.625 108.507812 158.507812 108.453125 158.371094 108.394531 C 158.007812 108.257812 157.65625 108.226562 157.292969 108.367188 C 156.796875 108.589844 156.472656 109.078125 156.472656 109.628906 L 156.472656 141.558594 C 156.472656 142.332031 157.078125 142.9375 157.851562 142.9375 L 172.554688 142.9375 C 173.300781 142.9375 173.9375 142.332031 173.9375 141.558594 L 173.9375 124.332031 C 173.9375 123.96875 173.769531 123.617188 173.523438 123.371094 Z M 171.175781 140.1875 L 159.222656 140.1875 L 159.222656 112.96875 L 171.175781 124.914062 L 171.175781 140.195312 Z M 208.203125 155.324219 L 193.632812 140.789062 C 193.386719 140.425781 192.96875 140.179688 192.507812 140.179688 L 192.476562 140.179688 C 192.3125 140.179688 192.117188 140.210938 191.957031 140.289062 C 191.457031 140.511719 191.132812 141.003906 191.132812 141.550781 L 191.132812 170.421875 L 157.859375 170.421875 C 157.085938 170.421875 156.476562 171.027344 156.476562 171.800781 L 156.476562 218.015625 C 156.476562 218.789062 157.085938 219.394531 157.859375 219.394531 L 172.5625 219.394531 C 173.335938 219.394531 173.941406 218.789062 173.941406 218.015625 L 173.941406 189.226562 C 173.941406 188.480469 174.550781 187.875 175.292969 187.875 L 207.21875 187.875 C 207.992188 187.875 208.597656 187.238281 208.597656 186.496094 L 208.597656 156.246094 C 208.597656 155.886719 208.460938 155.5625 208.214844 155.308594 Z M 205.832031 185.132812 L 172.554688 185.132812 C 171.785156 185.132812 171.175781 185.738281 171.175781 186.511719 L 171.175781 216.652344 L 159.222656 216.652344 L 159.222656 173.1875 L 192.5 173.1875 C 193.242188 173.1875 193.878906 172.550781 193.878906 171.808594 L 193.878906 144.886719 L 205.832031 156.832031 Z M 208.171875 231.757812 L 193.625 217.25 C 193.566406 217.195312 193.515625 217.113281 193.460938 217.054688 C 193.078125 216.675781 192.46875 216.558594 191.941406 216.753906 C 191.445312 216.976562 191.117188 217.46875 191.117188 218.015625 L 191.117188 246.914062 L 146.359375 246.914062 C 145.976562 246.914062 145.613281 247.082031 145.371094 247.328125 C 145.261719 247.464844 145.144531 247.601562 145.09375 247.769531 C 144.878906 248.265625 144.988281 248.871094 145.398438 249.253906 C 145.398438 249.3125 145.425781 249.3125 145.457031 249.3125 L 160.082031 263.957031 C 160.328125 264.230469 160.6875 264.367188 161.042969 264.367188 L 207.210938 264.367188 C 207.957031 264.367188 208.589844 263.734375 208.589844 262.988281 L 208.589844 232.742188 C 208.589844 232.359375 208.425781 232.027344 208.179688 231.75 Z M 205.832031 261.625 L 161.621094 261.625 L 149.695312 249.679688 L 192.5 249.679688 C 193.242188 249.679688 193.878906 249.046875 193.878906 248.300781 L 193.878906 221.351562 L 205.832031 233.296875 Z M 205.832031 261.625 " fill-opacity="1" fill-rule="nonzero"/></g><path fill="#231f20" d="M 295.214844 137.546875 L 295.214844 171.015625 L 252.492188 171.015625 L 252.492188 248.308594 L 215.386719 248.308594 L 216.769531 249.6875 L 230.101562 263.011719 L 267.203125 263.011719 L 267.203125 185.71875 L 309.929688 185.71875 L 309.929688 152.25 L 295.222656 137.554688 Z M 295.214844 137.546875 " fill-opacity="1" fill-rule="nonzero"/><path fill="#231f20" d="M 310.890625 151.261719 L 296.183594 136.585938 L 296.183594 136.558594 C 296.183594 136.558594 296.125 136.5 296.105469 136.5 C 295.996094 136.390625 295.886719 136.332031 295.742188 136.277344 C 295.578125 136.195312 295.382812 136.167969 295.222656 136.167969 C 295.027344 136.167969 294.863281 136.195312 294.671875 136.277344 C 294.175781 136.472656 293.851562 136.960938 293.851562 137.539062 L 293.851562 169.636719 L 252.507812 169.636719 C 251.761719 169.636719 251.125 170.242188 251.125 171.015625 L 251.125 246.929688 L 215.402344 246.929688 C 214.851562 246.929688 214.328125 247.261719 214.136719 247.78125 C 214.058594 247.949219 214.03125 248.144531 214.03125 248.300781 C 214.03125 248.496094 214.058594 248.664062 214.136719 248.820312 C 214.195312 248.988281 214.304688 249.152344 214.414062 249.261719 L 229.117188 263.957031 C 229.394531 264.230469 229.753906 264.367188 230.109375 264.367188 L 267.210938 264.367188 C 267.984375 264.367188 268.59375 263.734375 268.59375 262.988281 L 268.59375 188.367188 C 268.59375 187.652344 269.167969 187.074219 269.882812 187.074219 L 310.042969 187.074219 C 310.757812 187.015625 311.308594 186.410156 311.308594 185.695312 L 311.308594 152.226562 C 311.308594 151.84375 311.140625 151.511719 310.894531 151.238281 Z M 308.550781 184.347656 L 267.203125 184.347656 C 266.460938 184.347656 265.824219 184.953125 265.824219 185.722656 L 265.824219 261.640625 L 230.679688 261.640625 L 218.695312 249.695312 L 252.492188 249.695312 C 253.265625 249.695312 253.871094 249.058594 253.871094 248.316406 L 253.871094 172.402344 L 295.324219 172.402344 C 296.011719 172.34375 296.585938 171.738281 296.585938 171.023438 L 296.585938 140.851562 L 308.542969 152.796875 L 308.542969 184.339844 Z M 308.550781 184.347656 " fill-opacity="1" fill-rule="nonzero"/><path fill="#231f20" d="M 356.582031 110.738281 L 355.203125 109.363281 L 355.203125 248.308594 L 318.125 248.308594 L 319.507812 249.6875 L 332.839844 263.011719 L 369.914062 263.011719 L 369.914062 124.0625 Z M 356.582031 110.738281 " fill-opacity="1" fill-rule="nonzero"/><g clip-path="url(#4887de7de8)"><path fill="#231f20" d="M 370.910156 123.097656 L 356.363281 108.597656 C 356.308594 108.539062 356.257812 108.460938 356.199219 108.402344 C 355.785156 108.019531 355.207031 107.902344 354.679688 108.097656 C 354.183594 108.316406 353.828125 108.8125 353.828125 109.363281 L 353.828125 246.929688 L 318.132812 246.929688 C 317.554688 246.929688 317.058594 247.261719 316.839844 247.78125 C 316.78125 247.949219 316.761719 248.113281 316.761719 248.28125 L 316.761719 248.308594 C 316.761719 248.476562 316.789062 248.667969 316.871094 248.828125 C 316.925781 248.996094 317.035156 249.160156 317.144531 249.269531 L 331.851562 263.964844 C 332.125 264.238281 332.457031 264.375 332.839844 264.375 L 369.914062 264.375 C 370.6875 264.375 371.265625 263.769531 371.292969 263.027344 L 371.292969 124.0625 C 371.292969 123.703125 371.15625 123.347656 370.910156 123.105469 Z M 368.542969 261.632812 L 333.394531 261.632812 L 321.441406 249.6875 L 355.214844 249.6875 C 355.988281 249.6875 356.59375 249.050781 356.59375 248.308594 L 356.59375 112.695312 L 368.550781 124.640625 L 368.550781 261.632812 Z M 368.542969 261.632812 " fill-opacity="1" fill-rule="nonzero"/></g><path fill="#ffffff" d="M 97.566406 171.050781 L 97.566406 137.582031 L 29.253906 137.582031 L 5.238281 161.558594 L 5.238281 224.347656 L 19.945312 239.042969 L 28.292969 247.386719 L 29.253906 248.34375 L 97.566406 248.34375 L 97.566406 214.875 L 42.363281 214.875 L 42.363281 171.058594 L 97.5625 171.058594 Z M 42.371094 216.246094 L 96.195312 216.246094 L 96.195312 246.964844 L 29.832031 246.964844 L 6.609375 223.761719 L 6.609375 162.128906 L 29.832031 138.953125 L 96.1875 138.953125 L 96.1875 169.671875 L 42.363281 169.671875 C 41.589844 169.671875 40.984375 170.277344 40.984375 171.050781 L 40.984375 214.871094 C 40.984375 215.613281 41.589844 216.246094 42.363281 216.246094 Z M 42.371094 216.246094 " fill-opacity="1" fill-rule="nonzero"/><g clip-path="url(#ac4d71e2d5)"><path fill="#231f20" d="M 97.566406 172.429688 C 98.3125 172.429688 98.949219 171.792969 98.949219 171.050781 L 98.949219 137.582031 C 98.949219 137.199219 98.78125 136.839844 98.535156 136.621094 C 98.507812 136.59375 98.476562 136.566406 98.457031 136.542969 C 98.347656 136.433594 98.234375 136.378906 98.09375 136.320312 C 97.929688 136.238281 97.734375 136.210938 97.574219 136.210938 L 29.253906 136.210938 C 28.894531 136.210938 28.539062 136.347656 28.292969 136.59375 L 4.269531 160.59375 C 3.996094 160.867188 3.859375 161.199219 3.859375 161.550781 L 3.859375 224.339844 C 3.859375 224.699219 3.996094 225.054688 4.269531 225.300781 L 28.285156 249.296875 C 28.53125 249.570312 28.894531 249.710938 29.246094 249.710938 L 97.5625 249.710938 C 98.304688 249.710938 98.941406 249.074219 98.941406 248.332031 L 98.941406 214.863281 C 98.941406 214.558594 98.859375 214.3125 98.695312 214.089844 C 98.636719 214.011719 98.585938 213.953125 98.527344 213.894531 L 98.449219 213.816406 C 98.339844 213.707031 98.226562 213.648438 98.089844 213.597656 C 97.921875 213.519531 97.726562 213.492188 97.566406 213.492188 L 43.742188 213.492188 L 43.742188 172.421875 L 97.566406 172.421875 Z M 96.1875 246.964844 L 29.832031 246.964844 L 6.609375 223.761719 L 6.609375 162.128906 L 29.832031 138.953125 L 96.1875 138.953125 L 96.1875 169.671875 L 42.363281 169.671875 C 41.589844 169.671875 40.984375 170.277344 40.984375 171.050781 L 40.984375 214.871094 C 40.984375 215.613281 41.589844 216.246094 42.363281 216.246094 L 96.1875 216.246094 Z M 96.1875 246.964844 " fill-opacity="1" fill-rule="nonzero"/></g><path fill="#ffffff" d="M 40.992188 171.050781 L 40.992188 214.871094 C 40.992188 215.613281 41.597656 216.246094 42.371094 216.246094 L 96.195312 216.246094 L 96.195312 246.964844 L 29.832031 246.964844 L 6.609375 223.761719 L 6.609375 162.128906 L 29.832031 138.953125 L 96.1875 138.953125 L 96.1875 169.671875 L 42.363281 169.671875 C 41.589844 169.671875 40.984375 170.277344 40.984375 171.050781 Z M 40.992188 171.050781 " fill-opacity="1" fill-rule="nonzero"/><path fill="#ffffff" d="M 192.628906 171.851562 L 192.628906 141.601562 L 157.972656 141.601562 L 157.972656 109.671875 L 120.871094 119.25 L 120.871094 222.742188 L 135.574219 237.4375 L 146.453125 248.335938 L 192.621094 248.335938 L 192.621094 218.058594 L 157.964844 218.058594 L 157.964844 171.84375 L 192.621094 171.84375 Z M 157.972656 219.445312 L 191.25 219.445312 L 191.25 246.972656 L 147.039062 246.972656 L 122.25 222.171875 L 122.25 120.324219 L 156.601562 111.460938 L 156.601562 141.601562 C 156.601562 142.375 157.207031 142.980469 157.980469 142.980469 L 191.257812 142.980469 L 191.257812 170.480469 L 157.980469 170.480469 C 157.207031 170.480469 156.601562 171.085938 156.601562 171.859375 L 156.601562 218.074219 C 156.601562 218.847656 157.207031 219.453125 157.980469 219.453125 Z M 157.972656 219.445312 " fill-opacity="1" fill-rule="nonzero"/><g clip-path="url(#e8ffcbdb60)"><path fill="#231f20" d="M 192.628906 173.222656 C 193.371094 173.222656 194.007812 172.589844 194.007812 171.84375 L 194.007812 141.59375 C 194.007812 141.320312 193.929688 141.046875 193.761719 140.824219 C 193.515625 140.460938 193.097656 140.21875 192.636719 140.21875 L 159.359375 140.21875 L 159.359375 109.671875 C 159.359375 109.367188 159.222656 109.035156 159.027344 108.820312 C 158.96875 108.761719 158.917969 108.710938 158.863281 108.652344 L 158.804688 108.597656 C 158.695312 108.515625 158.609375 108.460938 158.5 108.429688 C 158.335938 108.351562 158.140625 108.320312 157.980469 108.320312 L 157.921875 108.320312 C 157.8125 108.320312 157.726562 108.320312 157.621094 108.351562 L 157.425781 108.410156 L 120.515625 117.9375 C 119.910156 118.074219 119.496094 118.621094 119.496094 119.257812 L 119.496094 222.75 C 119.496094 223.113281 119.632812 223.464844 119.878906 223.710938 L 145.5 249.3125 L 145.527344 249.3125 C 145.527344 249.371094 145.558594 249.371094 145.585938 249.371094 C 145.808594 249.617188 146.136719 249.730469 146.46875 249.730469 L 192.636719 249.730469 C 193.378906 249.730469 194.015625 249.09375 194.015625 248.351562 L 194.015625 218.074219 C 194.015625 217.800781 193.9375 217.527344 193.769531 217.300781 C 193.710938 217.242188 193.660156 217.164062 193.605469 217.105469 C 193.4375 216.941406 193.191406 216.832031 192.9375 216.746094 L 192.859375 216.746094 C 192.78125 216.71875 192.722656 216.6875 192.636719 216.6875 L 159.359375 216.6875 L 159.359375 173.222656 L 192.636719 173.222656 Z M 191.25 246.964844 L 147.039062 246.964844 L 122.25 222.167969 L 122.25 120.324219 L 156.601562 111.460938 L 156.601562 141.601562 C 156.601562 142.375 157.207031 142.980469 157.980469 142.980469 L 191.257812 142.980469 L 191.257812 170.480469 L 157.980469 170.480469 C 157.207031 170.480469 156.601562 171.085938 156.601562 171.859375 L 156.601562 218.074219 C 156.601562 218.847656 157.207031 219.453125 157.980469 219.453125 L 191.257812 219.453125 L 191.257812 246.980469 Z M 191.25 246.964844 " fill-opacity="1" fill-rule="nonzero"/></g><path fill="#ffffff" d="M 156.601562 171.851562 L 156.601562 218.066406 C 156.601562 218.839844 157.207031 219.445312 157.980469 219.445312 L 191.257812 219.445312 L 191.257812 246.972656 L 147.046875 246.972656 L 122.257812 222.171875 L 122.257812 120.324219 L 156.609375 111.460938 L 156.609375 141.601562 C 156.609375 142.375 157.214844 142.980469 157.988281 142.980469 L 191.261719 142.980469 L 191.261719 170.480469 L 157.988281 170.480469 C 157.214844 170.480469 156.609375 171.085938 156.609375 171.859375 Z M 156.601562 171.851562 " fill-opacity="1" fill-rule="nonzero"/><path fill="#ffffff" d="M 241.144531 137.566406 L 215.523438 163.167969 L 215.523438 248.332031 L 252.628906 248.332031 L 252.628906 171.035156 L 295.324219 171.035156 L 295.324219 137.566406 Z M 293.980469 169.695312 L 252.636719 169.695312 C 251.890625 169.695312 251.257812 170.300781 251.257812 171.074219 L 251.257812 246.988281 L 216.90625 246.988281 L 216.90625 163.753906 L 241.722656 138.984375 L 293.972656 138.984375 L 293.972656 169.703125 Z M 293.980469 169.695312 " fill-opacity="1" fill-rule="nonzero"/><path fill="#231f20" d="M 296.3125 136.628906 L 296.234375 136.550781 C 296.125 136.441406 296.015625 136.382812 295.871094 136.332031 C 295.707031 136.253906 295.511719 136.226562 295.351562 136.226562 L 241.144531 136.226562 C 240.785156 136.226562 240.429688 136.363281 240.183594 136.609375 L 214.542969 162.210938 C 214.296875 162.484375 214.160156 162.84375 214.160156 163.199219 L 214.160156 248.359375 C 214.160156 248.554688 214.1875 248.71875 214.269531 248.878906 C 214.328125 249.046875 214.433594 249.210938 214.542969 249.320312 C 214.816406 249.566406 215.148438 249.730469 215.53125 249.730469 L 252.636719 249.730469 C 253.378906 249.730469 253.957031 249.152344 254.015625 248.4375 L 254.015625 172.445312 L 295.359375 172.445312 C 296.105469 172.445312 296.738281 171.808594 296.738281 171.066406 L 296.738281 137.597656 C 296.738281 137.214844 296.574219 136.855469 296.328125 136.636719 Z M 293.972656 169.6875 L 252.628906 169.6875 C 251.886719 169.6875 251.25 170.292969 251.25 171.066406 L 251.25 246.980469 L 216.898438 246.980469 L 216.898438 163.746094 L 241.714844 138.976562 L 293.964844 138.976562 L 293.964844 169.695312 Z M 293.972656 169.6875 " fill-opacity="1" fill-rule="nonzero"/><path fill="#ffffff" d="M 318.242188 109.417969 L 318.242188 248.335938 L 355.347656 248.335938 L 355.347656 109.417969 Z M 353.964844 246.964844 L 319.644531 246.964844 L 319.644531 110.769531 L 353.964844 110.769531 Z M 353.964844 246.964844 " fill-opacity="1" fill-rule="nonzero"/><g clip-path="url(#e399b85cdf)"><path fill="#231f20" d="M 356.5 108.617188 C 356.445312 108.558594 356.394531 108.480469 356.335938 108.421875 C 356.140625 108.257812 355.894531 108.148438 355.648438 108.089844 C 355.621094 108.0625 355.589844 108.0625 355.570312 108.0625 C 355.492188 108.035156 355.433594 108.003906 355.351562 108.003906 L 318.277344 108.003906 C 317.503906 108.003906 316.898438 108.640625 316.898438 109.382812 L 316.898438 248.332031 C 316.898438 248.496094 316.925781 248.691406 317.007812 248.851562 C 317.066406 249.015625 317.171875 249.183594 317.28125 249.289062 C 317.554688 249.535156 317.886719 249.703125 318.269531 249.703125 L 355.347656 249.703125 C 356.089844 249.703125 356.667969 249.125 356.726562 248.4375 L 356.726562 109.390625 C 356.726562 109.117188 356.644531 108.839844 356.507812 108.617188 Z M 353.964844 246.960938 L 319.644531 246.960938 L 319.644531 110.769531 L 353.964844 110.769531 L 353.964844 246.964844 Z M 353.964844 246.960938 " fill-opacity="1" fill-rule="nonzero"/></g><path fill="#ffffff" d="M 59.699219 187.097656 L 42.234375 169.644531 C 41.460938 169.644531 40.855469 170.25 40.855469 171.023438 L 58.320312 188.472656 C 58.320312 188.378906 58.320312 187.902344 58.703125 187.515625 C 59.097656 187.101562 59.605469 187.097656 59.691406 187.101562 Z M 59.699219 187.097656 " fill-opacity="1" fill-rule="nonzero"/><path fill="#ffffff" d="M 175.277344 187.898438 C 174.535156 187.898438 173.929688 188.503906 173.929688 189.246094 L 173.929688 189.277344 L 156.464844 171.824219 C 156.464844 171.050781 157.070312 170.445312 157.84375 170.445312 L 173.929688 186.519531 Z M 175.277344 187.898438 " fill-opacity="1" fill-rule="nonzero"/><path fill="#ffffff" d="M 294.082031 139.035156 L 294.082031 169.75 L 252.652344 169.75 C 251.9375 169.808594 251.359375 170.386719 251.359375 171.128906 L 251.359375 247.046875 L 217.007812 247.046875 L 217.007812 163.8125 L 241.824219 139.039062 L 294.074219 139.039062 Z M 294.082031 139.035156 " fill-opacity="1" fill-rule="nonzero"/><path fill="#ffffff" d="M 269.929688 187.097656 L 269.871094 187.097656 C 269.15625 187.097656 268.578125 187.671875 268.578125 188.386719 L 268.578125 188.46875 L 251.25 171.152344 L 251.25 171.074219 C 251.25 170.328125 251.828125 169.75 252.542969 169.695312 L 253.863281 171.015625 L 268.570312 185.710938 L 269.921875 187.089844 Z M 269.929688 187.097656 " fill-opacity="1" fill-rule="nonzero"/><path fill="#ffffff" d="M 113.523438 185.71875 C 113.523438 186.460938 112.917969 187.097656 112.144531 187.097656 C 111.703125 186.65625 111.234375 186.1875 110.765625 185.71875 C 110.292969 185.25 109.855469 184.808594 109.386719 184.339844 C 105.390625 180.347656 101.121094 176.082031 97.429688 172.394531 C 96.992188 171.925781 96.519531 171.484375 96.050781 171.015625 C 95.609375 170.546875 95.140625 170.105469 94.671875 169.636719 L 96.050781 169.636719 L 96.050781 168.257812 L 98.804688 171.007812 L 110.757812 182.953125 Z M 113.523438 185.71875 " fill-opacity="1" fill-rule="nonzero"/><path fill="#ffffff" d="M 208.585938 186.519531 C 208.585938 187.261719 207.976562 187.898438 207.203125 187.898438 C 206.765625 187.457031 206.292969 186.988281 205.824219 186.519531 C 205.355469 186.050781 204.914062 185.609375 204.445312 185.140625 C 200.449219 181.148438 196.183594 176.882812 192.492188 173.195312 C 192.050781 172.726562 191.582031 172.285156 191.113281 171.816406 C 190.671875 171.347656 190.203125 170.90625 189.730469 170.4375 L 191.113281 170.4375 L 191.113281 169.058594 L 193.863281 171.808594 L 205.816406 183.753906 L 208.570312 186.503906 Z M 208.585938 186.519531 " fill-opacity="1" fill-rule="nonzero"/><path fill="#ffffff" d="M 311.300781 185.609375 L 311.300781 185.71875 C 311.300781 186.433594 310.75 187.039062 310.035156 187.097656 L 308.65625 185.71875 C 308.441406 185.5 308.296875 185.355469 308.1875 185.25 L 295.324219 172.394531 C 295.15625 172.226562 294.992188 172.0625 294.855469 171.925781 C 294.550781 171.621094 294.246094 171.316406 293.945312 171.015625 C 293.808594 170.847656 293.640625 170.710938 293.476562 170.546875 C 293.199219 170.269531 292.953125 170.027344 292.671875 169.746094 L 294.074219 169.746094 L 294.074219 168.394531 L 296.582031 170.898438 L 308.179688 182.492188 L 311.292969 185.601562 Z M 311.300781 185.609375 " fill-opacity="1" fill-rule="nonzero"/><path fill="#ffffff" d="M 113.523438 263.011719 C 113.523438 263.753906 112.886719 264.390625 112.144531 264.390625 L 109.390625 261.640625 L 97.4375 249.695312 L 94.6875 246.945312 L 96.066406 246.945312 L 96.066406 245.566406 C 96.535156 246.035156 96.976562 246.476562 97.445312 246.945312 C 97.914062 247.414062 98.355469 247.855469 98.824219 248.324219 C 102.820312 252.316406 106.785156 256.277344 110.777344 260.269531 C 111.25 260.738281 111.6875 261.179688 112.160156 261.648438 C 112.628906 262.117188 113.070312 262.558594 113.539062 263.027344 Z M 113.523438 263.011719 " fill-opacity="1" fill-rule="nonzero"/><path fill="#ffffff" d="M 208.585938 263.011719 C 208.585938 263.753906 207.949219 264.390625 207.203125 264.390625 L 204.453125 261.640625 L 192.5 249.695312 L 189.746094 246.945312 L 191.125 246.945312 L 191.125 245.566406 L 192.507812 246.945312 C 192.976562 247.414062 193.414062 247.855469 193.886719 248.324219 C 197.878906 252.316406 201.84375 256.277344 205.839844 260.269531 C 206.308594 260.738281 206.75 261.179688 207.21875 261.648438 C 207.464844 261.894531 208.019531 262.449219 208.597656 263.027344 Z M 208.585938 263.011719 " fill-opacity="1" fill-rule="nonzero"/><path fill="#ffffff" d="M 268.578125 263.011719 C 268.578125 263.753906 267.96875 264.390625 267.199219 264.390625 L 249.789062 246.996094 L 251.25 246.996094 L 251.25 245.703125 L 267.199219 261.640625 C 267.304688 261.75 267.863281 262.304688 268.578125 263.019531 Z M 268.578125 263.011719 " fill-opacity="1" fill-rule="nonzero"/><path fill="#ffffff" d="M 319.644531 110.769531 L 353.964844 110.769531 L 353.964844 246.964844 L 319.644531 246.964844 Z M 319.644531 110.769531 " fill-opacity="1" fill-rule="nonzero"/><g clip-path="url(#4b8502af34)"><path fill="#ffffff" d="M 371.292969 263.039062 C 371.265625 263.785156 370.6875 264.390625 369.914062 264.390625 L 355.230469 249.714844 L 352.476562 246.964844 L 353.964844 246.964844 L 353.964844 245.703125 L 356.582031 248.316406 C 356.640625 248.375 356.660156 248.394531 356.71875 248.453125 L 367.074219 258.804688 C 367.546875 259.273438 367.984375 259.710938 368.457031 260.183594 C 368.484375 260.183594 368.511719 260.210938 368.535156 260.238281 C 368.867188 260.601562 370.101562 261.835938 371.285156 263.046875 Z M 371.292969 263.039062 " fill-opacity="1" fill-rule="nonzero"/></g></svg>