<?xml version="1.0" encoding="UTF-8"?>
<svg id="Layer_1" data-name="Layer 1" xmlns="http://www.w3.org/2000/svg" viewBox="0 0 508.9 352.26">
  <defs>
    <style>
      .cls-1 {
        fill: #fff;
      }

      .cls-2 {
        fill: #eb008b;
      }

      .cls-3 {
        fill: #00adee;
      }

      .cls-4 {
        fill: #fff100;
      }

      .cls-5 {
        fill: #231f20;
      }
    </style>
  </defs>
  <g>
    <path class="cls-5" d="m99.93,316.24c-4.13-3.33-5.94-8.09-5.44-14.26h5.63c-.42,4.42.85,7.94,3.82,10.57,2.96,2.63,7.32,3.94,13.07,3.94s10.63-1.31,14.14-3.94c3.5-2.63,5.25-6.03,5.25-10.2,0-2.5-.71-4.59-2.13-6.26-1.42-1.67-3.17-3-5.25-4-2.09-1-5-2.17-8.76-3.5-4.17-1.42-7.57-2.79-10.2-4.13-2.63-1.33-4.84-3.19-6.63-5.57-1.79-2.38-2.69-5.4-2.69-9.07s1.04-6.78,3.13-9.57c2.08-2.79,4.96-4.96,8.63-6.5,3.67-1.54,7.76-2.32,12.26-2.32,6.25,0,11.47,1.61,15.64,4.82,4.17,3.21,6.26,7.44,6.26,12.7,0,1.08-.04,1.92-.13,2.5h-5.5c.08-.42.13-1.08.13-2,0-4-1.61-7.23-4.82-9.7-3.21-2.46-7.24-3.69-12.07-3.69-5.17,0-9.44,1.23-12.82,3.69-3.38,2.46-5.07,5.78-5.07,9.94,0,2.75.75,5.03,2.25,6.82,1.5,1.79,3.36,3.21,5.57,4.25,2.21,1.04,5.19,2.23,8.94,3.56,4.17,1.42,7.48,2.75,9.94,4,2.46,1.25,4.57,3,6.32,5.25,1.75,2.25,2.63,5.13,2.63,8.63,0,5.84-2.36,10.47-7.07,13.88-4.71,3.42-10.82,5.13-18.33,5.13-7,0-12.57-1.67-16.7-5Z"/>
    <path class="cls-5" d="m258.24,252.31l-33.4,67.93h-5.38l-11.01-60.3-32.4,60.3h-5.38l-9.26-67.93h5.88l7.51,60.8,32.4-60.8h5.5l10.76,60.8,29.02-60.8h5.75Z"/>
    <path class="cls-5" d="m276.38,252.31l-12.13,67.93h-5.63l12.13-67.93h5.63Z"/>
    <path class="cls-5" d="m312.28,256.75c5.67-3.55,12.05-5.32,19.14-5.32,8.42,0,15.09,2.4,20.02,7.19,4.92,4.8,7.38,11.37,7.38,19.7,0,2.5-.25,5.13-.75,7.88-1.25,7.01-3.73,13.16-7.44,18.45-3.71,5.29-8.3,9.38-13.76,12.26-5.46,2.88-11.36,4.32-17.7,4.32-7.09,0-12.84-1.77-17.26-5.32-4.42-3.54-7.17-8.03-8.26-13.45l-8.76,49.79h-5.5l17.64-99.95h5.5l-3.13,17.89c2.92-5.42,7.21-9.9,12.89-13.45Zm40.66,22.33c0-7.17-2.09-12.76-6.26-16.76-4.17-4-9.8-6-16.89-6-5.25,0-10.22,1.23-14.89,3.69-4.67,2.46-8.63,5.96-11.88,10.51-3.25,4.55-5.42,9.78-6.51,15.7-.42,2.67-.63,4.88-.63,6.63,0,7.17,2.15,12.86,6.44,17.07,4.29,4.21,9.9,6.32,16.83,6.32,5.5,0,10.57-1.21,15.2-3.63,4.63-2.42,8.51-5.88,11.63-10.38,3.13-4.5,5.23-9.84,6.32-16.01.42-2.08.63-4.46.63-7.13Z"/>
    <path class="cls-5" d="m425.43,254.75c4.04,2.21,7.09,5.17,9.13,8.88,2.04,3.71,3.06,7.86,3.06,12.45,0,2-.17,3.84-.5,5.5-.5,3-1,5.26-1.5,6.76h-58.67c-.33,2.67-.5,4.59-.5,5.75,0,7.17,2.17,12.68,6.5,16.51,4.34,3.84,9.8,5.75,16.39,5.75s12.45-1.65,17.58-4.94c5.13-3.29,8.78-7.78,10.95-13.45h5.88c-2.67,6.92-7.11,12.53-13.32,16.82-6.21,4.3-13.53,6.44-21.95,6.44s-15.03-2.42-20.08-7.26c-5.05-4.84-7.57-11.42-7.57-19.77,0-2.58.25-5.25.75-8.01,1.25-7.09,3.75-13.26,7.51-18.51,3.75-5.26,8.36-9.28,13.82-12.07,5.46-2.79,11.4-4.19,17.83-4.19,5.75,0,10.65,1.11,14.7,3.32Zm6.57,21.83c0-6.59-2.11-11.63-6.32-15.14-4.21-3.5-9.53-5.26-15.95-5.26-4.75,0-9.34,1.04-13.76,3.13-4.42,2.08-8.26,5.21-11.51,9.38-3.25,4.17-5.5,9.26-6.76,15.26h53.42c.58-2.42.87-4.88.87-7.38Z"/>
  </g>
  <g>
    <g>
      <polygon class="cls-3" points="129.72 87.3 150.08 107.67 150.08 61.3 129.72 40.93 129.72 87.3"/>
      <polygon class="cls-2" points="53.3 87.3 73.66 107.67 150.08 107.67 129.72 87.3 53.3 87.3"/>
      <polygon class="cls-4" points="53.3 148.02 73.66 148.02 73.66 107.67 53.3 87.3 53.3 148.02"/>
      <polygon class="cls-3" points="129.72 148.02 129.72 194.39 150.08 214.76 150.08 168.39 129.72 148.02"/>
      <polygon class="cls-2" points="35.15 194.39 55.52 214.76 150.08 214.76 129.72 194.39 35.15 194.39"/>
      <polygon class="cls-4" points="213.35 2.29 213.35 46.52 233.72 46.52 233.72 22.65 213.35 2.29"/>
      <polygon class="cls-3" points="281.69 66.36 281.69 108.78 261.32 88.41 261.32 46.52 281.69 66.36"/>
      <polygon class="cls-2" points="233.72 108.78 213.35 88.41 261.32 88.41 281.69 108.78 233.72 108.78"/>
      <polygon class="cls-4" points="213.35 152.47 233.72 152.47 233.72 108.78 213.35 88.41 213.35 152.47"/>
      <polygon class="cls-3" points="261.32 194.39 261.32 152.47 281.69 172.83 281.69 214.76 261.32 194.39"/>
      <polygon class="cls-2" points="197.43 194.39 217.8 214.76 281.69 214.76 261.32 194.39 197.43 194.39"/>
      <polygon class="cls-3" points="403.53 87.3 423.9 107.67 423.9 61.3 403.53 40.93 403.53 87.3"/>
      <polygon class="cls-2" points="344.41 87.3 364.78 107.67 423.9 107.67 403.53 87.3 344.41 87.3"/>
      <polygon class="cls-4" points="344.41 194.39 364.78 214.76 364.78 107.67 344.41 87.3 344.41 194.39"/>
      <polygon class="cls-2" points="293.02 194.39 344.41 194.39 364.78 214.76 313.39 214.76 293.02 194.39"/>
      <polygon class="cls-2" points="435.26 194.39 455.63 214.76 506.99 214.76 486.62 194.39 435.26 194.39"/>
      <polygon class="cls-4" points="486.62 1.91 486.62 194.39 506.99 214.76 506.99 22.27 486.62 1.91"/>
    </g>
    <g>
      <path class="cls-5" d="m150.08,216.67H55.52c-.51,0-.99-.2-1.35-.56l-20.37-20.37c-.55-.55-.71-1.36-.41-2.08.29-.71.99-1.18,1.76-1.18h92.66v-44.47c0-.77.46-1.47,1.18-1.76.71-.3,1.53-.13,2.08.41l20.37,20.37c.36.36.56.84.56,1.35v46.37c0,1.05-.85,1.91-1.91,1.91Zm-93.77-3.81h91.87v-43.68l-16.55-16.55v41.77c0,1.05-.85,1.91-1.91,1.91H39.76l16.55,16.55Zm17.35-62.92h-20.37c-1.05,0-1.91-.85-1.91-1.91v-60.72c0-1.05.85-1.91,1.91-1.91h74.51v-44.47c0-.77.46-1.47,1.18-1.76.71-.3,1.53-.13,2.08.41l20.37,20.37c.36.36.56.84.56,1.35v46.37c0,1.05-.85,1.91-1.91,1.91h-74.51v38.45c0,1.05-.85,1.91-1.91,1.91Zm-18.46-3.81h16.55v-38.45c0-1.05.85-1.91,1.91-1.91h74.51v-43.68l-16.55-16.55v41.77c0,1.05-.85,1.91-1.91,1.91H55.2v56.91Z"/>
      <path class="cls-5" d="m281.69,216.67h-63.89c-.51,0-.99-.2-1.35-.56l-20.34-20.37c-.54-.55-.71-1.36-.41-2.08.3-.71.99-1.18,1.76-1.18h61.96v-40.02c0-.77.46-1.47,1.18-1.76.72-.3,1.53-.13,2.08.41l20.37,20.37c.36.36.56.84.56,1.35v41.93c0,1.05-.85,1.91-1.91,1.91Zm-63.1-3.81h61.19v-39.23l-16.55-16.55v37.32c0,1.05-.85,1.91-1.91,1.91h-59.27l16.53,16.55Zm15.13-58.48h-20.37c-1.05,0-1.91-.85-1.91-1.91v-64.06c0-1.05.85-1.91,1.91-1.91h46.07v-39.99c0-.77.46-1.47,1.18-1.76.72-.3,1.53-.13,2.08.41l20.37,20.37c.36.36.56.84.56,1.35v41.9c0,1.05-.85,1.91-1.91,1.91h-46.07v41.78c0,1.05-.85,1.91-1.91,1.91Zm-18.46-3.81h16.55v-41.78c0-1.05.85-1.91,1.91-1.91h46.07v-39.2l-16.55-16.55v37.29c0,1.05-.85,1.91-1.91,1.91h-46.07v60.24Zm18.46-102.14h-20.37c-1.05,0-1.91-.85-1.91-1.91V2.28c0-.77.46-1.47,1.18-1.76.72-.3,1.53-.13,2.08.41l20.37,20.37c.36.36.56.84.56,1.35v23.86c0,1.05-.85,1.91-1.91,1.91Zm-18.46-3.81h16.55v-21.17l-16.55-16.55v37.72Z"/>
      <path class="cls-5" d="m364.78,216.67h-51.39c-.51,0-.99-.2-1.35-.56l-20.37-20.37c-.55-.55-.71-1.36-.41-2.08.29-.71.99-1.18,1.76-1.18h49.48v-105.19c0-1.05.85-1.91,1.91-1.91h57.21v-44.47c0-.77.46-1.47,1.18-1.76.71-.3,1.53-.13,2.08.41l20.37,20.37c.36.36.56.84.56,1.35v46.37c0,1.05-.85,1.91-1.91,1.91h-57.21v105.18c0,1.05-.85,1.91-1.91,1.91Zm-50.6-3.81h48.69v-105.18c0-1.05.85-1.91,1.91-1.91h57.21v-43.68l-16.55-16.55v41.77c0,1.05-.85,1.91-1.91,1.91h-57.21v105.19c0,1.05-.85,1.91-1.91,1.91h-46.79l16.55,16.55Z"/>
      <path class="cls-5" d="m506.99,216.67h-51.36c-.51,0-.99-.2-1.35-.56l-20.37-20.37c-.55-.55-.71-1.36-.41-2.08.29-.71.99-1.18,1.76-1.18h49.46V1.91c0-.77.46-1.47,1.18-1.76.72-.29,1.53-.13,2.08.41l20.37,20.37c.36.36.56.84.56,1.35v192.49c0,1.05-.85,1.91-1.91,1.91Zm-50.57-3.81h48.67V23.06l-16.55-16.55v187.88c0,1.05-.85,1.91-1.91,1.91h-46.76l16.55,16.55Z"/>
    </g>
    <g>
      <g>
        <polygon class="cls-1" points="129.72 40.93 129.72 87.3 53.3 87.3 53.3 148.02 129.72 148.02 129.72 194.39 35.15 194.39 22.27 181.51 1.91 161.15 1.91 74.18 35.15 40.93 129.72 40.93"/>
        <path class="cls-5" d="m129.72,196.3H35.15c-.51,0-.99-.2-1.35-.56L.56,162.49c-.36-.36-.56-.84-.56-1.35v-86.97c0-.51.2-.99.56-1.35l33.25-33.25c.36-.36.84-.56,1.35-.56h94.56c1.05,0,1.91.85,1.91,1.91v46.37c0,1.05-.85,1.91-1.91,1.91H55.2v56.91h74.51c1.05,0,1.91.85,1.91,1.91v46.37c0,1.05-.85,1.91-1.91,1.91Zm-93.77-3.81h91.87v-42.56H53.3c-1.05,0-1.91-.85-1.91-1.91v-60.72c0-1.05.85-1.91,1.91-1.91h74.51v-42.56H35.94L3.81,74.97v85.39l32.13,32.13Z"/>
      </g>
      <g>
        <polygon class="cls-1" points="261.32 46.52 261.32 88.41 213.35 88.41 213.35 152.47 261.32 152.47 261.32 194.39 197.43 194.39 182.35 179.29 161.99 158.92 161.99 15.55 213.35 2.29 213.35 46.52 261.32 46.52"/>
        <path class="cls-5" d="m261.32,196.3h-63.89c-.51,0-.99-.2-1.35-.56l-35.44-35.47c-.36-.36-.56-.84-.56-1.35V15.55c0-.87.59-1.63,1.43-1.85L212.87.44c.57-.15,1.18-.02,1.64.34.47.36.74.92.74,1.51v42.32h46.07c1.05,0,1.91.85,1.91,1.91v41.9c0,1.05-.85,1.91-1.91,1.91h-46.07v60.24h46.07c1.05,0,1.91.85,1.91,1.91v41.93c0,1.05-.85,1.91-1.91,1.91Zm-63.1-3.81h61.19v-38.11h-46.07c-1.05,0-1.91-.85-1.91-1.91v-64.06c0-1.05.85-1.91,1.91-1.91h46.07v-38.08h-46.07c-1.05,0-1.91-.85-1.91-1.91V4.75l-47.55,12.28v141.11l34.33,34.35Z"/>
      </g>
      <g>
        <polygon class="cls-1" points="403.53 40.93 403.53 87.3 344.41 87.3 344.41 194.39 293.02 194.39 293.02 76.4 328.5 40.93 403.53 40.93"/>
        <path class="cls-5" d="m344.41,196.3h-51.39c-1.05,0-1.91-.85-1.91-1.91v-117.99c0-.51.2-.99.56-1.35l35.47-35.47c.36-.36.84-.56,1.35-.56h75.04c1.05,0,1.91.85,1.91,1.91v46.37c0,1.05-.85,1.91-1.91,1.91h-57.21v105.19c0,1.05-.85,1.91-1.91,1.91Zm-49.48-3.81h47.58v-105.19c0-1.05.85-1.91,1.91-1.91h57.21v-42.56h-72.34l-34.35,34.35v115.3Z"/>
      </g>
      <g>
        <rect class="cls-1" x="435.26" y="1.91" width="51.36" height="192.49"/>
        <path class="cls-5" d="m486.62,196.3h-51.36c-1.05,0-1.91-.85-1.91-1.91V1.91c0-1.05.85-1.91,1.91-1.91h51.36c1.05,0,1.91.85,1.91,1.91v192.49c0,1.05-.85,1.91-1.91,1.91Zm-49.46-3.81h47.55V3.81h-47.55v188.67Z"/>
      </g>
    </g>
    <g>
      <path class="cls-5" d="m73.66,109.58c-.49,0-.98-.19-1.35-.56l-20.37-20.37c-.74-.74-.74-1.95,0-2.7s1.95-.74,2.7,0l20.37,20.37c.74.74.74,1.95,0,2.7-.37.37-.86.56-1.35.56Z"/>
      <path class="cls-5" d="m150.08,109.58c-.49,0-.98-.19-1.35-.56l-20.37-20.37c-.74-.74-.74-1.95,0-2.7s1.95-.74,2.7,0l20.37,20.37c.74.74.74,1.95,0,2.7-.37.37-.86.56-1.35.56Z"/>
      <path class="cls-5" d="m150.08,216.67c-.49,0-.98-.19-1.35-.56l-20.37-20.37c-.74-.74-.74-1.95,0-2.7s1.95-.74,2.7,0l20.37,20.37c.74.74.74,1.95,0,2.7-.37.37-.86.56-1.35.56Z"/>
      <path class="cls-5" d="m281.69,216.67c-.49,0-.98-.19-1.35-.56l-20.37-20.37c-.74-.74-.74-1.95,0-2.7s1.95-.74,2.7,0l20.37,20.37c.74.74.74,1.95,0,2.7-.37.37-.86.56-1.35.56Z"/>
      <path class="cls-5" d="m233.72,110.69c-.49,0-.98-.19-1.35-.56l-20.37-20.37c-.74-.74-.74-1.95,0-2.7s1.95-.74,2.7,0l20.37,20.37c.74.74.74,1.95,0,2.7-.37.37-.86.56-1.35.56Z"/>
      <path class="cls-5" d="m281.69,110.69c-.49,0-.98-.19-1.35-.56l-20.37-20.37c-.74-.74-.74-1.95,0-2.7s1.95-.74,2.7,0l20.37,20.37c.74.74.74,1.95,0,2.7-.37.37-.86.56-1.35.56Z"/>
      <path class="cls-5" d="m364.78,109.58c-.49,0-.98-.19-1.35-.56l-20.37-20.37c-.74-.74-.74-1.95,0-2.7s1.95-.74,2.7,0l20.37,20.37c.74.74.74,1.95,0,2.7-.37.37-.86.56-1.35.56Z"/>
      <path class="cls-5" d="m423.9,109.58c-.49,0-.98-.19-1.35-.56l-20.37-20.37c-.74-.74-.74-1.95,0-2.7s1.95-.74,2.7,0l20.37,20.37c.74.74.74,1.95,0,2.7-.37.37-.86.56-1.35.56Z"/>
      <path class="cls-5" d="m364.78,216.67c-.49,0-.98-.19-1.35-.56l-20.37-20.37c-.74-.74-.74-1.95,0-2.7s1.95-.74,2.7,0l20.37,20.37c.74.74.74,1.95,0,2.7-.37.37-.86.56-1.35.56Z"/>
      <path class="cls-5" d="m506.99,216.67c-.49,0-.98-.19-1.35-.56l-20.37-20.37c-.74-.74-.74-1.95,0-2.7s1.95-.74,2.7,0l20.37,20.37c.74.74.74,1.95,0,2.7-.37.37-.86.56-1.35.56Z"/>
    </g>
  </g>
</svg>